# xmcd CD database file
#
# Track frame offsets:
#	150
#	22900
#	44967
#	57458
#	70135
#	82399
#	97689
#	113084
#	134866
#	152853
#	168442
#	190247
#	208190
#
# Disc length: 2945 seconds
#
# Revision: 0
# Processed by: cddbd v1.5.2PL0 Copyright (c) Steve Scherf et al.
# Submitted via: CDex 1.79
#
DISCID=c20b7f0d
DTITLE=Billy McFarland - True Stories
DYEAR=1997
DGENRE=Country
TTITLE0=Christmas In Heaven
TTITLE1=Mama Sang A Song
TTITLE2=Men With Broken Hearts
TTITLE3=Drunken Driver
TTITLE4=Mother Went A Walking
TTITLE5=Old Doc Brown
TTITLE6=Be Careful Of Stones That You Throw
TTITLE7=My Mama's Waltz
TTITLE8=A Long Long Long Time Ago
TTITLE9=Wave Daddy Goodbye
TTITLE10=Little Rosa
TTITLE11=God's Little Corner
TTITLE12=Shifting Whispering Sands
EXTD=YEAR: 1997
EXTT0=
EXTT1=
EXTT2=
EXTT3=
EXTT4=
EXTT5=
EXTT6=
EXTT7=
EXTT8=
EXTT9=
EXTT10=
EXTT11=
EXTT12=
PLAYORDER=
